<svg width="128" height="128" viewBox="0 0 128 128" fill="none" xmlns="http://www.w3.org/2000/svg">
<rect width="128" height="128" rx="10" fill="#1D1D1D"/>
<path d="M61.8233 22.0074C61.5423 21.9637 61.2828 22.1168 61.1747 22.3793C61.0666 22.6419 61.1531 22.9482 61.3693 23.1232C62.9692 24.3483 64.4609 25.7047 65.8446 27.1487C80.5027 42.5505 80.027 67.1191 64.8285 81.9302C53.6079 92.869 37.1337 95.8444 22.8648 89.4999C22.6053 89.3905 22.3243 89.478 22.1297 89.6968C21.9568 89.9155 21.9568 90.2437 22.1297 90.4625C22.9945 91.5564 23.8377 92.5408 24.7241 93.4597C40.7874 110.349 67.4444 110.852 84.1348 94.5973C100.825 78.3423 101.322 51.3672 85.259 34.4777C78.9244 27.8269 70.8171 23.517 61.8233 22.0074Z" fill="#FFCB13"/>
</svg>
