<svg width="14" height="14" viewBox="0 0 14 14" fill="none" xmlns="http://www.w3.org/2000/svg">
<mask id="mask0_76_171" style="mask-type:alpha" maskUnits="userSpaceOnUse" x="0" y="0" width="14" height="14">
<rect x="0.0332031" y="0.0344849" width="13.7931" height="13.7931" fill="#D9D9D9"/>
</mask>
<g mask="url(#mask0_76_171)">
<path d="M6.49796 7.36204H3.62439C3.50227 7.36204 3.39992 7.32071 3.31735 7.23805C3.23469 7.15538 3.19336 7.05299 3.19336 6.93086C3.19336 6.80864 3.23469 6.70629 3.31735 6.62382C3.39992 6.54125 3.50227 6.49997 3.62439 6.49997H6.49796V3.62641C6.49796 3.50428 6.53929 3.40193 6.62195 3.31937C6.70461 3.23671 6.80701 3.19537 6.92914 3.19537C7.05136 3.19537 7.1537 3.23671 7.23618 3.31937C7.31874 3.40193 7.36003 3.50428 7.36003 3.62641V6.49997H10.2336C10.3557 6.49997 10.4581 6.5413 10.5406 6.62397C10.6233 6.70663 10.6646 6.80902 10.6646 6.93115C10.6646 7.05337 10.6233 7.15572 10.5406 7.23819C10.4581 7.32076 10.3557 7.36204 10.2336 7.36204H7.36003V10.2356C7.36003 10.3577 7.31869 10.4601 7.23603 10.5426C7.15337 10.6253 7.05097 10.6666 6.92885 10.6666C6.80663 10.6666 6.70428 10.6253 6.62181 10.5426C6.53924 10.4601 6.49796 10.3577 6.49796 10.2356V7.36204Z" fill="#3D3D3D"/>
</g>
</svg>
