<svg xmlns="http://www.w3.org/2000/svg" width="12.542" height="6.742" viewBox="0 0 12.542 6.742">
  <path id="chevron_right_24dp_FILL0_wght200_GRAD0_opsz24" d="M360.868-678.263l-5.212-5.212a.617.617,0,0,1-.184-.423.572.572,0,0,1,.184-.446.6.6,0,0,1,.434-.2.6.6,0,0,1,.434.2l5.387,5.387a.969.969,0,0,1,.226.328,1.007,1.007,0,0,1,.065.366,1.007,1.007,0,0,1-.065.366.97.97,0,0,1-.226.328l-5.387,5.387a.617.617,0,0,1-.423.184.572.572,0,0,1-.446-.184.6.6,0,0,1-.2-.434.6.6,0,0,1,.2-.434Z" transform="translate(-671.998 -355.46) rotate(90)" fill="#fff" opacity="0.8"/>
</svg>
