<?xml version="1.0" encoding="UTF-8"?>
<svg id="Layer_1" data-name="Layer 1" xmlns="http://www.w3.org/2000/svg" version="1.1" viewBox="0 0 569.02 144.51">
  <defs>
    <style>
      .cls-1 {
        fill: #eb1875;
      }

      .cls-1, .cls-2 {
        stroke-width: 0px;
      }

      .cls-2 {
        fill: #1d1d1d;
      }
    </style>
  </defs>
  <g>
    <path class="cls-1" d="M78.4,132.54c-.73,0-1.45-.16-2.13-.48-13.57-6.4-24.29-17.94-26.67-28.7-1.34-6.07-.08-11.65,3.66-16.14,7.9-9.48,14.1-8.17,20.65-6.78,3.26.69,6.96,1.47,12.07,1.27,8.77-.34,12.84-10.6,14.34-15.79l-14.58-10.41c-1.44-1.03-2.23-2.74-2.07-4.51.05-.68,1.03-17.63-19.86-26.51-9.52-4.04-18.07-4.59-25.41-1.62-7.19,2.91-13.19,9.35-16.91,18.14-4.11,9.73-1.68,24.79,5,30.99,3.25,3.01,7.05,3.33,11.61.98,16.17-8.33,5.77-36.17,5.66-36.45-.98-2.58.31-5.47,2.88-6.45,2.58-.99,5.46.3,6.45,2.87.57,1.48,13.71,36.5-10.42,48.93-8.27,4.26-16.65,3.34-22.99-2.53-9.67-8.96-13.13-28.69-7.41-42.21,4.76-11.26,12.7-19.61,22.37-23.52,9.89-4,21.02-3.43,33.07,1.69,4.87,2.07,8.83,4.51,12.06,7.13,9.23-7.71,30.52-17.94,49.13-4.41,20.62,15,23.88,39.49,8.52,63.93-14.04,22.33-54.59,48.68-56.31,49.79-.82.53-1.77.8-2.71.8ZM67.15,89.49c-2.2,0-3.61,1.01-6.22,4.13-1.73,2.08-2.25,4.55-1.58,7.58,1.56,7.05,9.24,15.39,18.71,20.56,8.84-5.95,39.86-27.58,50.89-45.14,12.48-19.86,10.26-38.74-5.94-50.53-15.31-11.13-32.1.33-36.31,3.59,5.48,7.49,6.7,15.09,6.92,19.18l15.24,10.89c1.55,1.11,2.34,3.01,2.03,4.89-.18,1.07-4.61,26.3-24.54,27.06-6.36.24-11.08-.75-14.53-1.48-2.02-.43-3.47-.73-4.68-.73Z"/>
    <circle class="cls-1" cx="68.83" cy="53.71" r="5.26"/>
  </g>
  <g>
    <path class="cls-2" d="M213.96,28.67c0,1.5-.9,2.4-2.33,2.33-6.98-.38-13.44-.83-19.52-.83-11.49,0-14.64.68-14.64,3.3s2.4,3.3,12.69,3.3c4.96,0,13.66-.45,22.07-1.35,1.43-.15,2.18.6,2.33,2.33l.38,4.58c.15,1.43-.6,2.18-2.33,2.33-5.26.45-10.89.98-15.84,1.2v1.88c0,1.43.9,2.25,2.7,2.33,3.68.15,12.91-.15,18.77-.6,1.58-.15,2.55.68,2.55,2.25v4.43c0,1.35-.75,2.25-2.48,2.4-4.65.45-15.31.6-27.03.6-10.51,0-20.42-.08-26.95-.6-1.73-.15-2.48-.98-2.48-2.4v-4.43c0-1.58.9-2.4,2.48-2.25,5.63.45,15.09.6,23.2.68-1.05-.45-1.65-1.43-1.65-2.63v-1.65c-14.04-.6-19.29-4.13-19.29-12.39,0-9.23,6.91-12.54,25.75-12.54,5.48,0,11.11.08,19.29.83,1.65.15,2.33.83,2.33,2.33v4.58ZM217.57,74.69c0,9.31-7.43,13.06-25.67,13.06s-25.68-3.75-25.68-13.06,7.43-13.06,25.68-13.06,25.67,3.75,25.67,13.06ZM191.89,78.74c11.86,0,14.79-.83,14.79-4.05s-2.93-4.05-14.79-4.05-14.79.83-14.79,4.05,2.93,4.05,14.79,4.05Z"/>
    <path class="cls-2" d="M244.67,77.99c0,1.65,2.33,1.8,17.12,1.8,6.16,0,15.54-.45,20.49-1.35,1.2-.23,2.03.38,2.1,1.58l.38,4.35c.08,1.05-.6,1.8-1.73,1.95-5.41.75-15.01,1.35-21.17,1.35-21.7,0-28.08-1.88-28.08-9.83s7.36-9.76,23.72-9.76c4.13,0,8.86-.08,12.16-.08,1.95,0,2.78-.45,2.78-1.5,0-1.13-.75-1.58-2.63-1.58-7.13,0-23.72.53-32.58,1.28-1.2.08-1.95-.6-1.95-1.8v-4.35c0-1.13.6-1.73,1.95-1.8,4.65-.3,9.98-.6,15.47-.83v-.98c0-.98.45-1.8,1.35-2.25-8.86.08-16.97-.07-23.05-.53-1.73-.15-2.33-.83-2.33-2.25v-3.98c0-1.58.75-2.25,2.33-2.1,6.46.53,16.52.6,27.03.6,11.71,0,22.52-.15,27.18-.6,1.58-.15,2.4.53,2.4,2.1v3.98c0,1.35-.6,2.1-2.33,2.25-3.68.38-12.46.6-19.37.6-1.65,0-2.33.68-2.33,1.95v.98c4.28,0,8.41,0,12.16.15,4.8.15,7.51,1.88,7.51,5.48,0,2.93-1.65,5.03-4.35,5.93h1.8c1.13,0,1.95.68,1.95,1.73v3.9c0,1.05-.75,1.8-1.95,1.8-5.48,0-9.31-.23-23.05-.23-11.04,0-12.99.45-12.99,2.03ZM281.15,35.43c1.35,0,2.03.68,2.03,2.03v3.83c0,1.28-.68,2.03-2.03,2.03h-37.84c-5.56,0-8.41-2.48-8.41-7.28v-11.26c0-2.55,1.28-3.83,3.75-3.83h35.74c5.25,0,7.88,2.18,7.88,6.68,0,3.38-2.18,6.31-5.71,7.81h4.58ZM271.24,31.6c0-1.58-.83-2.4-2.63-2.4h-21.02c-1.28,0-1.8.53-1.8,1.8v1.65c0,1.58.98,2.4,2.85,2.4h18.54c2.25,0,4.05-1.5,4.05-3.45Z"/>
    <path class="cls-2" d="M295.49,77.02v-5.56c0-1.58.9-2.4,2.48-2.25,5.63.53,15.46,1.13,23.87,1.35-1.43-.68-2.33-2.1-2.33-3.98v-5.86h-7.58c-6.16,0-9.83-3.3-10.06-8.86l-1.13-26.2c-.08-1.5.9-2.4,2.48-2.4h5.93c1.73,0,2.48.6,2.55,2.18l.23,6.46h25.98l.23-6.46c.08-1.5.83-2.18,2.55-2.18h5.93c1.65,0,2.55.9,2.48,2.4l-1.13,26.2c-.23,5.56-3.9,8.86-10.06,8.86h-7.51v6.46c0,3.15,2.33,3.15,4.73,3.15,4.13,0,11.56-.45,16.74-1.13,1.58-.23,2.55.68,2.55,2.25v5.56c0,1.35-.75,2.1-2.48,2.4-4.65.83-15.31,1.28-27.03,1.28-10.51,0-20.42-.38-26.95-1.28-1.73-.23-2.48-.98-2.48-2.4ZM312.61,48.11c.07,1.73.9,2.48,2.78,2.48h19.07c1.88,0,2.7-.75,2.78-2.48l.23-6.08h-25.07l.23,6.08Z"/>
    <path class="cls-2" d="M416.13,50.44c0,8.18-4.58,12.16-18.92,12.84v4.28c0,1.95.75,2.7,2.85,2.78,3.68.15,12.76-.38,18.62-1.13,1.58-.23,2.55.68,2.55,2.25v5.56c0,1.35-.75,2.1-2.48,2.4-4.65.83-15.31,1.28-27.03,1.28-10.51,0-20.42-.38-26.95-1.28-1.73-.23-2.48-.98-2.48-2.4v-5.56c0-1.58.9-2.4,2.48-2.25,5.63.53,14.79,1.2,23.12,1.35-1.05-.53-1.58-1.58-1.58-3.15v-4.2c-13.51-.83-17.79-4.73-17.79-12.76,0-8.86,5.56-12.69,23.8-12.69s23.8,3.83,23.8,12.69ZM389.55,18.61h6.23c1.58,0,2.33.75,2.33,2.33v2.18c0,.98.68,1.65,2.03,1.65h15.69c1.5,0,2.33.83,2.33,2.33v4.95c0,1.5-.83,2.33-2.33,2.33h-47c-1.5,0-2.33-.83-2.33-2.33v-4.95c0-1.5.83-2.33,2.33-2.33h19.52c-.75-.45-1.13-1.13-1.13-2.18v-1.65c0-1.58.75-2.33,2.33-2.33ZM405.4,50.44c0-2.4-1.2-3.68-13.06-3.68s-13.06,1.28-13.06,3.68c0,2.63,1.2,3.9,13.06,3.9s13.06-1.28,13.06-3.9Z"/>
    <path class="cls-2" d="M456.82,46.69c1.58,0,2.33.75,2.33,2.18v5.63c0,1.43-.68,2.33-2.18,2.33-6.08,0-11.49-4.2-13.36-9.91-2.03,5.86-8.03,9.91-14.19,9.91-1.58,0-2.33-.98-2.33-2.33v-5.63c0-1.43.83-2.18,2.48-2.18,5.63,0,8.86-4.65,8.86-10.06v-13.29c0-1.58.75-2.33,2.33-2.33h5.56c1.58,0,2.33.75,2.33,2.7v12.91c0,5.63,2.78,10.06,8.18,10.06ZM437.3,72.81c0-3.75.23-5.48.45-7.28.23-1.58.9-2.48,2.48-2.48h5.93c1.58,0,2.7.9,2.48,2.48-.3,2.33-.45,3.6-.45,5.63,0,4.28,2.78,6.38,8.48,6.38,10.89,0,23.2-.6,31.16-1.35,1.5-.15,2.25.83,2.33,2.33l.38,5.48c.08,1.5-.83,2.18-2.33,2.33-7.51.83-18.92,1.35-32.88,1.35-11.49,0-18.02-5.41-18.02-14.86ZM462.15,40.31h-5.03c-1.5,0-2.33-.83-2.33-2.33v-5.48c0-1.5.83-2.33,2.33-2.33h5.18c1.5,0,2.33-.75,2.33-2.18v-5.63c0-1.58.75-2.33,2.33-2.33h5.48c1.58,0,2.33.75,2.33,2.33v41.59c0,1.58-.75,2.33-2.33,2.33h-5.48c-1.58,0-2.33-.75-2.33-2.33v-24.77c-.53.68-1.43,1.13-2.48,1.13ZM480.84,19.29h5.48c1.58,0,2.33.75,2.33,2.33v42.34c0,1.58-.75,2.33-2.33,2.33h-5.48c-1.58,0-2.33-.75-2.33-2.33V21.61c0-1.58.75-2.33,2.33-2.33Z"/>
    <path class="cls-2" d="M519.28,66.96c3.38,0,7.13-.9,11.11-2.33.45-.15.83-.23,1.2-.23.98,0,1.73.53,2.03,1.65l1.43,5.1c.45,1.58,0,2.4-1.58,3.08-4.2,1.8-9.83,2.85-15.24,2.85-12.39,0-19.97-7.43-19.97-19.14,0-12.76,7.21-19.29,20.79-19.29,3.83,0,7.28.23,9.83.6,1.58.23,2.1,1.13,2.1,2.63v5.56c0,1.65-.98,2.33-2.48,2.1-2.85-.45-6.01-.68-8.26-.68-7.58,0-11.11,2.93-11.11,9.23,0,5.41,3.68,8.86,10.13,8.86ZM533.09,26.49v5.18c0,1.58-.9,2.48-2.48,2.48h-29.05c-1.58,0-2.48-.9-2.48-2.48v-5.18c0-1.58.9-2.48,2.48-2.48h29.05c1.58,0,2.48.9,2.48,2.48ZM543.9,19.29h5.93c1.58,0,2.48.9,2.48,2.48v62.31c0,1.58-.9,2.48-2.48,2.48h-5.93c-1.58,0-2.48-.9-2.48-2.48v-25.15c-.83,1.35-2.48,2.1-4.5,2.1h-2.63c-1.5,0-2.33-.83-2.33-2.33v-5.86c0-1.5.83-2.33,2.33-2.33h2.93c2.55,0,4.2-1.58,4.2-3.98v-24.77c0-1.58.9-2.48,2.48-2.48Z"/>
  </g>
  <g>
    <path class="cls-2" d="M182.25,116.73h-9.85l-1.45,4.28c-.15.44-.35.71-.83.71h-2.15c-.47,0-.74-.27-.59-.71l7.4-21.35c.21-.59.53-.83,1.15-.83h2.77c.62,0,.94.24,1.15.83l7.4,21.35c.15.44-.12.71-.59.71h-2.15c-.47,0-.68-.27-.83-.71l-1.45-4.28ZM181.13,113.49l-3.8-11.18-3.81,11.18h7.61Z"/>
    <path class="cls-2" d="M197.05,107.2c-2.48,0-4.07,1.36-4.07,3.48v10.23c0,.5-.29.8-.77.8h-1.86c-.47,0-.77-.29-.77-.8v-15.87c0-.5.29-.8.77-.8h1.86c.47,0,.77.29.77.8v1.03c1.21-1.27,3.16-2.12,5.01-2.12,3.95,0,6.34,2.42,6.34,6.58v10.38c0,.5-.29.8-.77.8h-1.86c-.47,0-.77-.29-.77-.8v-9.82c0-2.62-1.27-3.89-3.89-3.89Z"/>
    <path class="cls-2" d="M208.17,99.62c0-.5.29-.8.77-.8h1.86c.47,0,.77.3.77.8v2.65c0,.5-.29.8-.77.8h-1.86c-.47,0-.77-.29-.77-.8v-2.65ZM208.17,105.35c0-.5.29-.8.77-.8h1.86c.47,0,.77.29.77.8v15.57c0,.5-.29.8-.77.8h-1.86c-.47,0-.77-.29-.77-.8v-15.57Z"/>
    <path class="cls-2" d="M223.18,103.96c1.95,0,3.33.74,4.28,2.27.91-1.39,2.71-2.27,4.63-2.27,3.07,0,4.98,2.06,4.98,5.37v11.59c0,.5-.29.8-.77.8h-1.86c-.47,0-.77-.29-.77-.8v-11c0-1.86-.91-2.77-2.74-2.77s-2.86,1-2.86,2.51v11.27c0,.5-.29.8-.77.8h-1.86c-.47,0-.77-.29-.77-.8v-11c0-1.86-.91-2.77-2.74-2.77s-2.86,1-2.86,2.51v11.27c0,.5-.29.8-.77.8h-1.86c-.47,0-.77-.29-.77-.8v-15.87c0-.5.29-.8.77-.8h1.86c.47,0,.77.29.77.8v.71c1.06-1.15,2.54-1.8,4.1-1.8Z"/>
    <path class="cls-2" d="M252.26,120.09c-1.39,1.06-4.07,1.92-6.14,1.92-3.75,0-6.11-2.01-6.11-5.25,0-4.39,3.13-5.99,12.24-6.19v-.53c0-2.01-1.39-3.16-3.8-3.16-2.01,0-3.36.77-3.66,2.18-.09.38-.32.53-.83.53h-2.21c-.47,0-.77-.27-.71-.68.44-3.16,3.13-4.98,7.49-4.98,4.72,0,7.11,2.12,7.11,6.34v10.65c0,.5-.29.8-.77.8h-1.86c-.47,0-.77-.29-.77-.8v-.83ZM252.32,113.54c-6.49.15-8.97,1-8.97,3.21,0,1.39,1.33,2.24,3.45,2.24,1.65,0,3.6-.56,5.52-1.59v-3.86Z"/>
    <path class="cls-2" d="M259.46,99.62c0-.5.29-.8.77-.8h1.86c.47,0,.77.3.77.8v21.3c0,.5-.29.8-.77.8h-1.86c-.47,0-.77-.29-.77-.8v-21.3Z"/>
    <path class="cls-2" d="M278.62,114.43v6.49c0,.5-.29.8-.77.8h-1.86c-.47,0-.77-.29-.77-.8v-20.71c0-.89.47-1.39,1.36-1.39h8.61c4.66,0,7.43,2.65,7.43,7.79s-2.77,7.82-7.43,7.82h-6.58ZM278.62,102.07v9.11h6.4c2.77,0,4.22-1.59,4.22-4.54s-1.45-4.57-4.22-4.57h-6.4Z"/>
    <path class="cls-2" d="M302.34,107.14c-2.12,0-3.36,1.03-3.36,2.77v11c0,.5-.29.8-.77.8h-1.86c-.47,0-.77-.29-.77-.8v-15.87c0-.5.29-.8.77-.8h1.86c.47,0,.77.29.77.8v.56c.97-1.03,2.54-1.65,4.31-1.65.83,0,1.65.15,2.45.44.41.15.56.5.44.97l-.44,1.68c-.12.44-.41.59-.88.47-.91-.24-1.74-.38-2.51-.38Z"/>
    <path class="cls-2" d="M315.17,103.96c4.98,0,8.08,3.07,8.08,9.03s-3.1,9.03-8.08,9.03-8.08-3.07-8.08-9.03,3.1-9.03,8.08-9.03ZM315.17,118.88c3.27,0,4.75-1.92,4.75-5.9s-1.47-5.9-4.75-5.9-4.75,1.92-4.75,5.9,1.48,5.9,4.75,5.9Z"/>
    <path class="cls-2" d="M330.41,105.02v-5.69c0-.5.29-.8.77-.8h1.86c.47,0,.77.29.77.8v5.69h5.22c.5,0,.74.24.74.74v1.77c0,.5-.24.74-.74.74h-5.22v8.26c0,1.24.83,1.95,2.3,1.95,1.09,0,1.95-.06,2.3-.12.47-.09.77.15.77.56v1.77c0,.44-.21.68-.68.8-.59.15-1.71.24-2.98.24-3.24,0-5.1-1.71-5.1-4.69v-8.76h-4.37c-.5,0-.74-.24-.74-.74v-1.77c0-.5.24-.74.74-.74h4.37Z"/>
    <path class="cls-2" d="M350.11,122.04c-5.46,0-8.29-3.1-8.29-9.03s2.77-9.06,8.02-9.06,7.88,3.16,7.88,8.7c0,1.21-.62,2.01-1.89,2.01h-10.53c.38,3.01,1.89,4.25,4.98,4.25,1.89,0,3.36-.62,4.01-1.95.15-.32.38-.44.83-.44h1.86c.5,0,.74.24.65.68-.62,3.04-3.45,4.84-7.52,4.84ZM354.3,111.72c-.09-3.21-1.47-4.66-4.39-4.66s-4.37,1.42-4.63,4.66h9.03Z"/>
    <path class="cls-2" d="M368.96,122.04c-5.31,0-8.14-3.13-8.14-9.03s2.77-9.06,7.88-9.06c4.13,0,6.58,1.74,7.34,5.34.09.41-.09.68-.53.77l-1.89.35c-.47.09-.71-.03-.86-.44-.71-1.95-1.92-2.74-3.98-2.74-3.24,0-4.6,1.68-4.6,5.75s1.33,5.78,4.9,5.78c2.3,0,3.48-1,4.13-3.13.12-.38.35-.53.86-.44l1.89.29c.44.06.59.29.5.77-.74,3.72-3.45,5.78-7.49,5.78Z"/>
    <path class="cls-2" d="M383.44,105.02v-5.69c0-.5.29-.8.77-.8h1.86c.47,0,.77.29.77.8v5.69h5.22c.5,0,.74.24.74.74v1.77c0,.5-.24.74-.74.74h-5.22v8.26c0,1.24.83,1.95,2.3,1.95,1.09,0,1.95-.06,2.3-.12.47-.09.77.15.77.56v1.77c0,.44-.21.68-.68.8-.59.15-1.71.24-2.98.24-3.24,0-5.1-1.71-5.1-4.69v-8.76h-4.37c-.5,0-.74-.24-.74-.74v-1.77c0-.5.24-.74.74-.74h4.37Z"/>
    <path class="cls-2" d="M396.32,99.62c0-.5.29-.8.77-.8h1.86c.47,0,.77.3.77.8v2.65c0,.5-.29.8-.77.8h-1.86c-.47,0-.77-.29-.77-.8v-2.65ZM396.32,105.35c0-.5.29-.8.77-.8h1.86c.47,0,.77.29.77.8v15.57c0,.5-.29.8-.77.8h-1.86c-.47,0-.77-.29-.77-.8v-15.57Z"/>
    <path class="cls-2" d="M411.63,103.96c4.98,0,8.08,3.07,8.08,9.03s-3.1,9.03-8.08,9.03-8.08-3.07-8.08-9.03,3.1-9.03,8.08-9.03ZM411.63,118.88c3.27,0,4.75-1.92,4.75-5.9s-1.47-5.9-4.75-5.9-4.75,1.92-4.75,5.9,1.48,5.9,4.75,5.9Z"/>
    <path class="cls-2" d="M430.41,107.2c-2.48,0-4.07,1.36-4.07,3.48v10.23c0,.5-.29.8-.77.8h-1.86c-.47,0-.77-.29-.77-.8v-15.87c0-.5.29-.8.77-.8h1.86c.47,0,.77.29.77.8v1.03c1.21-1.27,3.16-2.12,5.01-2.12,3.95,0,6.34,2.42,6.34,6.58v10.38c0,.5-.29.8-.77.8h-1.86c-.47,0-.77-.29-.77-.8v-9.82c0-2.62-1.27-3.89-3.89-3.89Z"/>
    <path class="cls-2" d="M458.84,122.04c-6.61,0-9.94-3.95-9.94-11.77s3.3-11.77,9.79-11.77c4.87,0,7.76,2.77,8.64,6.43.09.41-.06.65-.56.77l-1.92.47c-.44.12-.71-.03-.86-.47-.91-2.77-2.45-3.92-5.25-3.92-4.42,0-6.46,2.68-6.46,8.49s2.06,8.49,6.64,8.49c2.74,0,4.54-1.45,5.52-4.57.12-.41.38-.53.89-.41l1.92.47c.47.12.65.35.53.8-1.18,4.6-4.25,6.99-8.94,6.99Z"/>
    <path class="cls-2" d="M478.07,122.04c-5.46,0-8.29-3.1-8.29-9.03s2.77-9.06,8.02-9.06,7.88,3.16,7.88,8.7c0,1.21-.62,2.01-1.89,2.01h-10.53c.38,3.01,1.89,4.25,4.98,4.25,1.89,0,3.36-.62,4.01-1.95.15-.32.38-.44.83-.44h1.86c.5,0,.74.24.65.68-.62,3.04-3.45,4.84-7.52,4.84ZM482.26,111.72c-.09-3.21-1.47-4.66-4.39-4.66s-4.37,1.42-4.63,4.66h9.03Z"/>
    <path class="cls-2" d="M496.53,107.2c-2.48,0-4.07,1.36-4.07,3.48v10.23c0,.5-.29.8-.77.8h-1.86c-.47,0-.77-.29-.77-.8v-15.87c0-.5.29-.8.77-.8h1.86c.47,0,.77.29.77.8v1.03c1.21-1.27,3.16-2.12,5.01-2.12,3.95,0,6.34,2.42,6.34,6.58v10.38c0,.5-.3.8-.77.8h-1.86c-.47,0-.77-.29-.77-.8v-9.82c0-2.62-1.27-3.89-3.89-3.89Z"/>
    <path class="cls-2" d="M510.98,105.02v-5.69c0-.5.29-.8.77-.8h1.86c.47,0,.77.29.77.8v5.69h5.22c.5,0,.74.24.74.74v1.77c0,.5-.24.74-.74.74h-5.22v8.26c0,1.24.83,1.95,2.3,1.95,1.09,0,1.95-.06,2.3-.12.47-.09.77.15.77.56v1.77c0,.44-.21.68-.68.8-.59.15-1.71.24-2.98.24-3.25,0-5.1-1.71-5.1-4.69v-8.76h-4.37c-.5,0-.74-.24-.74-.74v-1.77c0-.5.24-.74.74-.74h4.37Z"/>
    <path class="cls-2" d="M530.68,122.04c-5.46,0-8.29-3.1-8.29-9.03s2.77-9.06,8.02-9.06,7.88,3.16,7.88,8.7c0,1.21-.62,2.01-1.89,2.01h-10.53c.38,3.01,1.89,4.25,4.98,4.25,1.89,0,3.36-.62,4.01-1.95.15-.32.38-.44.83-.44h1.86c.5,0,.74.24.65.68-.62,3.04-3.45,4.84-7.52,4.84ZM534.87,111.72c-.09-3.21-1.47-4.66-4.39-4.66s-4.37,1.42-4.63,4.66h9.03Z"/>
    <path class="cls-2" d="M548.43,107.14c-2.12,0-3.36,1.03-3.36,2.77v11c0,.5-.29.8-.77.8h-1.86c-.47,0-.77-.29-.77-.8v-15.87c0-.5.29-.8.77-.8h1.86c.47,0,.77.29.77.8v.56c.97-1.03,2.54-1.65,4.31-1.65.83,0,1.65.15,2.45.44.41.15.56.5.44.97l-.44,1.68c-.12.44-.41.59-.88.47-.92-.24-1.74-.38-2.51-.38Z"/>
  </g>
</svg>